<svg xmlns="http://www.w3.org/2000/svg" xmlns:xlink="http://www.w3.org/1999/xlink" zoomAndPan="magnify" width="200" height="100" viewBox="65 130 250 100"  preserveAspectRatio="xMidYMid meet" version="1.0"><defs><g/><clipPath id="20c198a3da"><path d="M 132.953125 122.886719 L 241.703125 122.886719 L 241.703125 203.136719 L 132.953125 203.136719 Z M 132.953125 122.886719 " clip-rule="nonzero"/></clipPath></defs><g clip-path="url(#20c198a3da)"><path fill="#cc00ff" d="M 177.140625 155.351562 L 165.402344 143.609375 L 147.90625 161.105469 L 145.335938 158.53125 L 165.402344 138.46875 L 179.710938 152.78125 L 209.589844 122.902344 L 242.039062 155.351562 L 236.285156 161.105469 L 233.714844 158.53125 L 236.898438 155.351562 L 209.589844 128.042969 L 160.1875 177.445312 L 165.402344 182.65625 C 180.085938 167.972656 194.769531 153.289062 209.457031 138.601562 L 209.589844 138.46875 L 242.035156 170.914062 L 209.589844 203.363281 L 189.527344 183.300781 L 192.097656 180.730469 L 209.589844 198.222656 L 236.898438 170.914062 L 217.375 151.390625 L 197.847656 170.917969 L 209.589844 182.660156 L 227.082031 165.167969 L 229.652344 167.734375 L 209.589844 187.796875 L 195.277344 173.484375 L 165.402344 203.363281 L 132.953125 170.917969 L 138.703125 165.167969 L 141.273438 167.738281 L 138.09375 170.917969 L 165.398438 198.226562 L 214.800781 148.824219 L 209.589844 143.609375 C 194.902344 158.296875 180.21875 172.980469 165.535156 187.664062 L 165.398438 187.800781 L 132.953125 155.351562 L 165.402344 122.902344 L 185.464844 142.96875 L 182.894531 145.539062 L 165.402344 128.042969 L 138.09375 155.351562 L 157.617188 174.875 Z M 177.140625 155.351562 " fill-opacity="1" fill-rule="evenodd"/></g><g fill="#000000" fill-opacity="1"><g transform="translate(92.466992, 230.992734)"><g><path d="M 3.796875 -5.421875 L 9.75 -5.421875 L 9.75 -7.78125 L 3.796875 -7.78125 L 3.796875 -10.359375 L 10.40625 -10.359375 L 10.40625 -12.71875 L 1.15625 -12.71875 L 1.15625 0 L 10.59375 0 L 10.59375 -2.359375 L 3.796875 -2.359375 Z M 3.796875 -5.421875 "/></g></g></g><g fill="#000000" fill-opacity="1"><g transform="translate(103.764518, 230.992734)"><g><path d="M 3.796875 -12.71875 L 1.15625 -12.71875 L 1.15625 0 L 10 0 L 10 -2.359375 L 3.796875 -2.359375 Z M 3.796875 -12.71875 "/></g></g></g><g fill="#000000" fill-opacity="1"><g transform="translate(114.026881, 230.992734)"><g><path d="M 3.796875 -5.421875 L 9.75 -5.421875 L 9.75 -7.78125 L 3.796875 -7.78125 L 3.796875 -10.359375 L 10.40625 -10.359375 L 10.40625 -12.71875 L 1.15625 -12.71875 L 1.15625 0 L 10.59375 0 L 10.59375 -2.359375 L 3.796875 -2.359375 Z M 3.796875 -5.421875 "/></g></g></g><g fill="#000000" fill-opacity="1"><g transform="translate(125.324408, 230.992734)"><g><path d="M 12.09375 -6.875 L 6.78125 -6.875 L 6.78125 -4.65625 L 9.8125 -4.65625 C 9.53125 -2.796875 8.265625 -1.875 6.703125 -1.875 C 4.5 -1.875 3.265625 -3.671875 3.265625 -6.359375 C 3.265625 -8.96875 4.484375 -10.734375 6.703125 -10.734375 C 8.25 -10.734375 9.1875 -9.875 9.40625 -8.53125 L 12 -8.703125 C 11.578125 -11.375 9.703125 -13.015625 6.546875 -13.015625 C 3.15625 -13.015625 0.625 -10.484375 0.625 -6.359375 C 0.625 -2.234375 3.203125 0.40625 6.40625 0.40625 C 8.109375 0.40625 9.328125 -0.34375 9.96875 -1.359375 L 10.375 0 L 12.09375 0 Z M 12.09375 -6.875 "/></g></g></g><g fill="#000000" fill-opacity="1"><g transform="translate(138.567327, 230.992734)"><g><path d="M 12.390625 0 L 8 -12.71875 L 4.953125 -12.71875 L 0.453125 0 L 3.25 0 L 4.109375 -2.640625 L 8.71875 -2.640625 L 9.578125 0 Z M 5.34375 -6.390625 L 6.421875 -10.0625 L 7.5 -6.390625 L 8.015625 -4.828125 L 4.828125 -4.828125 Z M 5.34375 -6.390625 "/></g></g></g><g fill="#000000" fill-opacity="1"><g transform="translate(151.399747, 230.992734)"><g><path d="M 8.78125 -7.140625 C 8.78125 -6.25 8.8125 -5.34375 8.828125 -4.453125 C 8.40625 -5.15625 7.984375 -5.859375 7.53125 -6.578125 L 3.75 -12.71875 L 1.15625 -12.71875 L 1.15625 0 L 3.796875 0 L 3.796875 -5.578125 C 3.796875 -6.453125 3.796875 -7.359375 3.78125 -8.25 C 4.234375 -7.5 4.671875 -6.75 5.140625 -6 L 8.84375 0 L 11.4375 0 L 11.4375 -12.71875 L 8.78125 -12.71875 Z M 8.78125 -7.140625 "/></g></g></g><g fill="#000000" fill-opacity="1"><g transform="translate(163.982308, 230.992734)"><g><path d="M 0.359375 -12.71875 L 0.359375 -10.359375 L 4.171875 -10.359375 L 4.171875 0 L 6.828125 0 L 6.828125 -10.359375 L 10.625 -10.359375 L 10.625 -12.71875 Z M 0.359375 -12.71875 "/></g></g></g><g fill="#000000" fill-opacity="1"><g transform="translate(174.966986, 230.992734)"><g/></g></g><g fill="#000000" fill-opacity="1"><g transform="translate(179.785841, 230.992734)"><g><path d="M 6.109375 0.265625 C 9.625 0.265625 11.015625 -1.484375 11.015625 -3.5 C 11.015625 -5.484375 9.734375 -6.609375 7.375 -7.109375 L 5.140625 -7.59375 C 3.546875 -7.921875 2.921875 -8.5 2.921875 -9.5 C 2.921875 -10.84375 4 -11.609375 5.828125 -11.609375 C 7.765625 -11.609375 8.890625 -10.75 9.03125 -9.140625 L 10.625 -9.140625 C 10.40625 -11.59375 8.703125 -12.96875 5.875 -12.96875 C 2.953125 -12.96875 1.359375 -11.5 1.359375 -9.359375 C 1.359375 -7.34375 2.859375 -6.484375 4.921875 -6.046875 L 6.71875 -5.671875 C 8.703125 -5.265625 9.40625 -4.609375 9.40625 -3.40625 C 9.40625 -1.984375 8.34375 -1.09375 6.15625 -1.09375 C 3.96875 -1.09375 2.671875 -2 2.5 -4.109375 L 0.90625 -4.109375 C 1.125 -1.171875 2.921875 0.265625 6.109375 0.265625 Z M 6.109375 0.265625 "/></g></g></g><g fill="#000000" fill-opacity="1"><g transform="translate(191.708032, 230.992734)"><g><path d="M 7.140625 0.296875 C 10.71875 0.296875 13.15625 -2.421875 13.15625 -6.359375 C 13.15625 -10.21875 10.71875 -12.953125 7.140625 -12.953125 C 3.59375 -12.953125 1.140625 -10.21875 1.140625 -6.359375 C 1.140625 -2.46875 3.59375 0.296875 7.140625 0.296875 Z M 7.15625 -1.171875 C 4.625 -1.171875 2.84375 -3.203125 2.84375 -6.359375 C 2.84375 -9.484375 4.625 -11.46875 7.15625 -11.46875 C 9.6875 -11.46875 11.46875 -9.484375 11.46875 -6.359375 C 11.46875 -3.15625 9.71875 -1.171875 7.15625 -1.171875 Z M 7.15625 -1.171875 "/></g></g></g><g fill="#000000" fill-opacity="1"><g transform="translate(206.003957, 230.992734)"><g><path d="M 10.21875 -12.71875 L 1.515625 -12.71875 L 1.515625 0 L 3.171875 0 L 3.171875 -5.828125 L 9 -5.828125 L 9 -7.265625 L 3.171875 -7.265625 L 3.171875 -11.265625 L 10.21875 -11.265625 Z M 10.21875 -12.71875 "/></g></g></g><g fill="#000000" fill-opacity="1"><g transform="translate(216.658966, 230.992734)"><g><path d="M 0.625 -12.71875 L 0.625 -11.265625 L 4.875 -11.265625 L 4.875 0 L 6.53125 0 L 6.53125 -11.265625 L 10.78125 -11.265625 L 10.78125 -12.71875 Z M 0.625 -12.71875 "/></g></g></g><g fill="#000000" fill-opacity="1"><g transform="translate(228.063575, 230.992734)"><g><path d="M 12.8125 -5.125 L 12.125 -2.25 L 11.453125 -5.125 L 9.390625 -12.71875 L 7.515625 -12.71875 L 5.453125 -5.125 L 4.75 -2.265625 L 4.125 -5.125 L 2.234375 -12.71875 L 0.53125 -12.71875 L 3.921875 0 L 5.515625 0 L 7.71875 -8.25 L 8.453125 -11.125 L 9.1875 -8.25 L 11.390625 0 L 12.984375 0 L 16.515625 -12.71875 L 14.828125 -12.71875 Z M 12.8125 -5.125 "/></g></g></g><g fill="#000000" fill-opacity="1"><g transform="translate(245.108027, 230.992734)"><g><path d="M 12.25 0 L 7.34375 -12.71875 L 5.46875 -12.71875 L 0.53125 0 L 2.296875 0 L 3.671875 -3.734375 L 9.078125 -3.734375 L 10.40625 0 Z M 5.984375 -10 L 6.40625 -11.328125 L 6.828125 -10 L 8.546875 -5.171875 L 4.21875 -5.171875 Z M 5.984375 -10 "/></g></g></g><g fill="#000000" fill-opacity="1"><g transform="translate(257.886911, 230.992734)"><g><path d="M 10.984375 -4.046875 C 10.859375 -5.234375 10.140625 -5.96875 9.03125 -6.171875 C 10.375 -6.546875 11.3125 -7.71875 11.3125 -9.359375 C 11.3125 -11.390625 9.84375 -12.71875 7.40625 -12.71875 L 1.515625 -12.71875 L 1.515625 0 L 3.171875 0 L 3.171875 -5.484375 L 7.109375 -5.484375 C 8.59375 -5.484375 9.234375 -4.890625 9.390625 -3.390625 L 9.765625 0 L 11.453125 0 Z M 3.171875 -6.921875 L 3.171875 -11.265625 L 7.125 -11.265625 C 8.734375 -11.265625 9.609375 -10.53125 9.609375 -9.203125 C 9.609375 -7.75 8.578125 -6.921875 6.84375 -6.921875 Z M 3.171875 -6.921875 "/></g></g></g><g fill="#000000" fill-opacity="1"><g transform="translate(270.665795, 230.992734)"><g><path d="M 3.171875 -5.828125 L 9.953125 -5.828125 L 9.953125 -7.265625 L 3.171875 -7.265625 L 3.171875 -11.265625 L 10.515625 -11.265625 L 10.515625 -12.71875 L 1.515625 -12.71875 L 1.515625 0 L 10.6875 0 L 10.6875 -1.453125 L 3.171875 -1.453125 Z M 3.171875 -5.828125 "/></g></g></g></svg>