<svg xmlns="http://www.w3.org/2000/svg" xmlns:xlink="http://www.w3.org/1999/xlink" width="200" height="100" viewBox="65 130 250 100" preserveAspectRatio="xMidYMid meet" version="1.0"><defs><g/><clipPath id="5369f8af9f"><path d="M 132.953125 122.886719 L 241.703125 122.886719 L 241.703125 203.136719 L 132.953125 203.136719 Z M 132.953125 122.886719 " clip-rule="nonzero"/></clipPath></defs><g clip-path="url(#5369f8af9f)"><path fill="#cc00ff" d="M 177.140625 155.351562 L 165.402344 143.609375 L 147.90625 161.105469 L 145.335938 158.53125 L 165.402344 138.46875 L 179.710938 152.78125 L 209.589844 122.902344 L 242.039062 155.351562 L 236.285156 161.105469 L 233.714844 158.53125 L 236.898438 155.351562 L 209.589844 128.042969 L 160.1875 177.445312 L 165.402344 182.65625 C 180.085938 167.972656 194.769531 153.289062 209.457031 138.601562 L 209.589844 138.46875 L 242.035156 170.914062 L 209.589844 203.363281 L 189.527344 183.300781 L 192.097656 180.730469 L 209.589844 198.222656 L 236.898438 170.914062 L 217.375 151.390625 L 197.847656 170.917969 L 209.589844 182.660156 L 227.082031 165.167969 L 229.652344 167.734375 L 209.589844 187.796875 L 195.277344 173.484375 L 165.402344 203.363281 L 132.953125 170.917969 L 138.703125 165.167969 L 141.273438 167.738281 L 138.09375 170.917969 L 165.398438 198.226562 L 214.800781 148.824219 L 209.589844 143.609375 C 194.902344 158.296875 180.21875 172.980469 165.535156 187.664062 L 165.398438 187.800781 L 132.953125 155.351562 L 165.402344 122.902344 L 185.464844 142.96875 L 182.894531 145.539062 L 165.402344 128.042969 L 138.09375 155.351562 L 157.617188 174.875 Z M 177.140625 155.351562 " fill-opacity="1" fill-rule="evenodd"/></g><g fill="#ffffff" fill-opacity="1"><g transform="translate(81.931836, 228.742778)"><g><path d="M 9.703125 -14.734375 L 9.703125 -11.78125 L 4.625 -11.78125 L 4.625 -8.859375 L 9.484375 -8.859375 L 9.484375 -5.90625 L 4.625 -5.90625 L 4.625 -2.953125 L 9.703125 -2.953125 L 9.703125 0 L 1.265625 0 L 1.265625 -14.734375 Z M 9.703125 -14.734375 "/></g></g></g><g fill="#ffffff" fill-opacity="1"><g transform="translate(92.87241, 228.742778)"><g><path d="M 4.53125 -14.734375 L 4.53125 -2.953125 L 9.609375 -2.953125 L 9.609375 0 L 1.171875 0 L 1.171875 -14.734375 Z M 4.53125 -14.734375 "/></g></g></g><g fill="#ffffff" fill-opacity="1"><g transform="translate(103.652355, 228.742778)"><g><path d="M 9.703125 -14.734375 L 9.703125 -11.78125 L 4.625 -11.78125 L 4.625 -8.859375 L 9.484375 -8.859375 L 9.484375 -5.90625 L 4.625 -5.90625 L 4.625 -2.953125 L 9.703125 -2.953125 L 9.703125 0 L 1.265625 0 L 1.265625 -14.734375 Z M 9.703125 -14.734375 "/></g></g></g><g fill="#ffffff" fill-opacity="1"><g transform="translate(114.592929, 228.742778)"><g><path d="M 15.0625 -8.25 L 15.0625 0 L 13.328125 -0.609375 L 13.40625 -1.671875 C 12.789062 -0.992188 12.046875 -0.5 11.171875 -0.1875 C 10.296875 0.113281 9.320312 0.265625 8.25 0.265625 C 7.257812 0.265625 6.328125 0.0703125 5.453125 -0.3125 C 4.585938 -0.707031 3.820312 -1.253906 3.15625 -1.953125 C 2.5 -2.660156 1.988281 -3.472656 1.625 -4.390625 C 1.257812 -5.316406 1.078125 -6.304688 1.078125 -7.359375 C 1.078125 -8.421875 1.253906 -9.410156 1.609375 -10.328125 C 1.960938 -11.253906 2.460938 -12.066406 3.109375 -12.765625 C 3.753906 -13.472656 4.515625 -14.019531 5.390625 -14.40625 C 6.265625 -14.800781 7.21875 -15 8.25 -15 C 9.550781 -15 10.660156 -14.769531 11.578125 -14.3125 C 12.503906 -13.863281 13.289062 -13.253906 13.9375 -12.484375 L 11.734375 -10.078125 C 11.304688 -10.765625 10.816406 -11.25 10.265625 -11.53125 C 9.710938 -11.820312 9.109375 -11.96875 8.453125 -11.96875 C 7.753906 -11.96875 7.125 -11.757812 6.5625 -11.34375 C 6 -10.9375 5.546875 -10.382812 5.203125 -9.6875 C 4.867188 -8.988281 4.703125 -8.210938 4.703125 -7.359375 C 4.703125 -6.523438 4.867188 -5.765625 5.203125 -5.078125 C 5.546875 -4.390625 6 -3.84375 6.5625 -3.4375 C 7.125 -3.03125 7.753906 -2.828125 8.453125 -2.828125 C 8.984375 -2.828125 9.492188 -2.9375 9.984375 -3.15625 C 10.472656 -3.375 10.867188 -3.695312 11.171875 -4.125 C 11.484375 -4.550781 11.640625 -5.0625 11.640625 -5.65625 L 8.609375 -5.65625 L 8 -8.25 Z M 15.0625 -8.25 "/></g></g></g><g fill="#ffffff" fill-opacity="1"><g transform="translate(130.70931, 228.742778)"><g><path d="M 9.859375 -14.734375 L 15.828125 0 L 12.21875 0 L 11.109375 -2.953125 L 5.5 -2.953125 L 4.421875 0 L 0.828125 0 L 6.75 -14.734375 Z M 9.96875 -5.890625 L 8.28125 -10.1875 L 6.640625 -5.890625 Z M 9.96875 -5.890625 "/></g></g></g><g fill="#ffffff" fill-opacity="1"><g transform="translate(147.325421, 228.742778)"><g><path d="M 1.34375 0 L 1.34375 -14.734375 L 10.5625 -7.140625 L 10.59375 -14.734375 L 13.953125 -14.734375 L 13.953125 0 L 4.703125 -7.578125 L 4.703125 0 Z M 1.34375 0 "/></g></g></g><g fill="#ffffff" fill-opacity="1"><g transform="translate(162.602962, 228.742778)"><g><path d="M 0.90625 -11.78125 L 0.90625 -14.734375 L 11.265625 -14.734375 L 11.265625 -11.78125 L 7.765625 -11.78125 L 7.765625 0 L 4.40625 0 L 4.40625 -11.78125 Z M 0.90625 -11.78125 "/></g></g></g><g fill="#ffffff" fill-opacity="1"><g transform="translate(174.775023, 228.742778)"><g/></g></g><g fill="#ffffff" fill-opacity="1"><g transform="translate(177.737727, 228.742778)"><g><path d="M 2.625 -4.5 C 3.007812 -4.226562 3.453125 -3.972656 3.953125 -3.734375 C 4.460938 -3.503906 4.972656 -3.320312 5.484375 -3.1875 C 5.992188 -3.0625 6.460938 -3.003906 6.890625 -3.015625 C 7.328125 -3.023438 7.679688 -3.128906 7.953125 -3.328125 C 8.222656 -3.523438 8.359375 -3.84375 8.359375 -4.28125 C 8.359375 -4.675781 8.207031 -5.023438 7.90625 -5.328125 C 7.613281 -5.628906 7.234375 -5.914062 6.765625 -6.1875 C 6.304688 -6.457031 5.8125 -6.726562 5.28125 -7 C 4.757812 -7.269531 4.265625 -7.566406 3.796875 -7.890625 C 3.335938 -8.222656 2.960938 -8.597656 2.671875 -9.015625 C 2.378906 -9.441406 2.234375 -9.9375 2.234375 -10.5 C 2.234375 -11.132812 2.363281 -11.75 2.625 -12.34375 C 2.894531 -12.945312 3.289062 -13.472656 3.8125 -13.921875 C 4.34375 -14.367188 4.984375 -14.6875 5.734375 -14.875 C 6.492188 -15.0625 7.363281 -15.0625 8.34375 -14.875 C 9.332031 -14.695312 10.421875 -14.273438 11.609375 -13.609375 L 10.25 -10.9375 C 9.6875 -11.40625 9.128906 -11.710938 8.578125 -11.859375 C 8.023438 -12.015625 7.515625 -12.046875 7.046875 -11.953125 C 6.585938 -11.867188 6.21875 -11.703125 5.9375 -11.453125 C 5.65625 -11.210938 5.515625 -10.9375 5.515625 -10.625 C 5.515625 -10.351562 5.671875 -10.109375 5.984375 -9.890625 C 6.296875 -9.671875 6.695312 -9.445312 7.1875 -9.21875 C 7.675781 -9 8.203125 -8.753906 8.765625 -8.484375 C 9.328125 -8.222656 9.851562 -7.910156 10.34375 -7.546875 C 10.84375 -7.179688 11.25 -6.75 11.5625 -6.25 C 11.875 -5.757812 12.03125 -5.171875 12.03125 -4.484375 C 12.03125 -3.773438 11.835938 -3.09375 11.453125 -2.4375 C 11.078125 -1.789062 10.550781 -1.226562 9.875 -0.75 C 9.195312 -0.269531 8.394531 0.0390625 7.46875 0.1875 C 6.539062 0.34375 5.523438 0.285156 4.421875 0.015625 C 3.316406 -0.253906 2.160156 -0.816406 0.953125 -1.671875 Z M 2.625 -4.5 "/></g></g></g><g fill="#ffffff" fill-opacity="1"><g transform="translate(190.695082, 228.742778)"><g><path d="M 4.40625 -7.375 C 4.40625 -6.613281 4.585938 -5.914062 4.953125 -5.28125 C 5.316406 -4.644531 5.804688 -4.128906 6.421875 -3.734375 C 7.046875 -3.347656 7.738281 -3.15625 8.5 -3.15625 C 9.257812 -3.15625 9.945312 -3.347656 10.5625 -3.734375 C 11.175781 -4.128906 11.664062 -4.644531 12.03125 -5.28125 C 12.394531 -5.914062 12.578125 -6.613281 12.578125 -7.375 C 12.578125 -8.132812 12.394531 -8.832031 12.03125 -9.46875 C 11.664062 -10.113281 11.175781 -10.625 10.5625 -11 C 9.945312 -11.382812 9.257812 -11.578125 8.5 -11.578125 C 7.738281 -11.578125 7.046875 -11.382812 6.421875 -11 C 5.804688 -10.625 5.316406 -10.113281 4.953125 -9.46875 C 4.585938 -8.832031 4.40625 -8.132812 4.40625 -7.375 Z M 1.078125 -7.375 C 1.078125 -8.414062 1.265625 -9.394531 1.640625 -10.3125 C 2.023438 -11.226562 2.554688 -12.039062 3.234375 -12.75 C 3.910156 -13.457031 4.695312 -14.007812 5.59375 -14.40625 C 6.5 -14.800781 7.46875 -15 8.5 -15 C 9.539062 -15 10.507812 -14.800781 11.40625 -14.40625 C 12.300781 -14.007812 13.082031 -13.457031 13.75 -12.75 C 14.425781 -12.039062 14.953125 -11.226562 15.328125 -10.3125 C 15.710938 -9.394531 15.90625 -8.414062 15.90625 -7.375 C 15.90625 -6.34375 15.710938 -5.363281 15.328125 -4.4375 C 14.953125 -3.507812 14.425781 -2.695312 13.75 -2 C 13.082031 -1.300781 12.300781 -0.75 11.40625 -0.34375 C 10.507812 0.0625 9.539062 0.265625 8.5 0.265625 C 7.46875 0.265625 6.5 0.0625 5.59375 -0.34375 C 4.695312 -0.75 3.910156 -1.300781 3.234375 -2 C 2.554688 -2.695312 2.023438 -3.507812 1.640625 -4.4375 C 1.265625 -5.363281 1.078125 -6.34375 1.078125 -7.375 Z M 1.078125 -7.375 "/></g></g></g><g fill="#ffffff" fill-opacity="1"><g transform="translate(207.668145, 228.742778)"><g><path d="M 9.703125 -14.734375 L 9.703125 -11.78125 L 4.515625 -11.78125 L 4.515625 -8.859375 L 9.3125 -8.859375 L 9.3125 -5.90625 L 4.515625 -5.90625 L 4.515625 0 L 1.15625 0 L 1.15625 -14.734375 Z M 9.703125 -14.734375 "/></g></g></g><g fill="#ffffff" fill-opacity="1"><g transform="translate(218.51949, 228.742778)"><g><path d="M 0.90625 -11.78125 L 0.90625 -14.734375 L 11.265625 -14.734375 L 11.265625 -11.78125 L 7.765625 -11.78125 L 7.765625 0 L 4.40625 0 L 4.40625 -11.78125 Z M 0.90625 -11.78125 "/></g></g></g><g fill="#ffffff" fill-opacity="1"><g transform="translate(230.691551, 228.742778)"><g><path d="M 13.4375 0 L 11.078125 -8.265625 L 8.71875 0 L 5 0 L 0.78125 -14.734375 L 4.53125 -14.734375 L 7.03125 -4.625 L 7.140625 -4.625 L 9.828125 -14.734375 L 12.359375 -14.734375 L 15.03125 -4.625 L 15.109375 -4.625 L 17.640625 -14.734375 L 21.359375 -14.734375 L 17.140625 0 Z M 13.4375 0 "/></g></g></g><g fill="#ffffff" fill-opacity="1"><g transform="translate(252.804728, 228.742778)"><g><path d="M 9.859375 -14.734375 L 15.828125 0 L 12.21875 0 L 11.109375 -2.953125 L 5.5 -2.953125 L 4.421875 0 L 0.828125 0 L 6.75 -14.734375 Z M 9.96875 -5.890625 L 8.28125 -10.1875 L 6.640625 -5.890625 Z M 9.96875 -5.890625 "/></g></g></g><g fill="#ffffff" fill-opacity="1"><g transform="translate(269.420839, 228.742778)"><g><path d="M 1.15625 -14.734375 L 6.53125 -14.734375 C 7.707031 -14.710938 8.664062 -14.476562 9.40625 -14.03125 C 10.144531 -13.59375 10.6875 -13.03125 11.03125 -12.34375 C 11.382812 -11.664062 11.5625 -10.953125 11.5625 -10.203125 C 11.539062 -9.453125 11.410156 -8.8125 11.171875 -8.28125 C 10.929688 -7.757812 10.601562 -7.328125 10.1875 -6.984375 C 9.78125 -6.640625 9.332031 -6.363281 8.84375 -6.15625 L 12.890625 0 L 9.203125 0 L 5.59375 -5.5 C 5.382812 -5.488281 5.1875 -5.476562 5 -5.46875 C 4.820312 -5.46875 4.660156 -5.46875 4.515625 -5.46875 L 4.515625 0 L 1.15625 0 Z M 4.515625 -8.140625 C 4.921875 -8.148438 5.328125 -8.175781 5.734375 -8.21875 C 6.148438 -8.257812 6.523438 -8.347656 6.859375 -8.484375 C 7.203125 -8.617188 7.476562 -8.8125 7.6875 -9.0625 C 7.894531 -9.320312 8.003906 -9.664062 8.015625 -10.09375 C 8.015625 -10.632812 7.859375 -11.046875 7.546875 -11.328125 C 7.234375 -11.609375 6.8125 -11.800781 6.28125 -11.90625 C 5.75 -12.007812 5.160156 -12.0625 4.515625 -12.0625 Z M 4.515625 -8.140625 "/></g></g></g><g fill="#ffffff" fill-opacity="1"><g transform="translate(282.110482, 228.742778)"><g><path d="M 9.703125 -14.734375 L 9.703125 -11.78125 L 4.625 -11.78125 L 4.625 -8.859375 L 9.484375 -8.859375 L 9.484375 -5.90625 L 4.625 -5.90625 L 4.625 -2.953125 L 9.703125 -2.953125 L 9.703125 0 L 1.265625 0 L 1.265625 -14.734375 Z M 9.703125 -14.734375 "/></g></g></g></svg>